<svg id="visual" viewBox="0 0 960 540" width="960" height="540" xmlns="http://www.w3.org/2000/svg" xmlns:xlink="http://www.w3.org/1999/xlink" version="1.1"><g stroke-width="1" stroke-linejoin="bevel"><path d="M340 243L636 0L283 0Z" fill="#fafafa" stroke="#fafafa"></path><path d="M340 243L657 285L636 0Z" fill="#f8f8f8" stroke="#f8f8f8"></path><path d="M283 0L0 275L340 243Z" fill="#f8f8f8" stroke="#f8f8f8"></path><path d="M340 243L610 540L657 285Z" fill="#f5f5f5" stroke="#f5f5f5"></path><path d="M287 540L610 540L340 243Z" fill="#f5f5f5" stroke="#f5f5f5"></path><path d="M0 275L287 540L340 243Z" fill="#f5f5f5" stroke="#f5f5f5"></path><path d="M0 0L0 275L283 0Z" fill="#fafafa" stroke="#fafafa"></path><path d="M960 230L960 0L636 0Z" fill="#f8f8f8" stroke="#f8f8f8"></path><path d="M960 230L636 0L657 285Z" fill="#ffffff" stroke="#ffffff"></path><path d="M960 540L960 230L657 285Z" fill="#ffffff" stroke="#ffffff"></path><path d="M0 275L0 540L287 540Z" fill="#f8f8f8" stroke="#f8f8f8"></path><path d="M610 540L960 540L657 285Z" fill="#f8f8f8" stroke="#f8f8f8"></path></g></svg>