<svg id="visual" viewBox="0 0 960 540" width="960" height="540" xmlns="http://www.w3.org/2000/svg" xmlns:xlink="http://www.w3.org/1999/xlink" version="1.1"><g stroke-width="1" stroke-linejoin="bevel"><path d="M629 244L635 0L317 0Z" fill="#ee000a" stroke="#ee000a"></path><path d="M317 0L323 279L629 244Z" fill="#d5020d" stroke="#d5020d"></path><path d="M323 279L617 540L629 244Z" fill="#99070e" stroke="#99070e"></path><path d="M0 540L328 540L323 279Z" fill="#b1050e" stroke="#b1050e"></path><path d="M323 279L328 540L617 540Z" fill="#e1010c" stroke="#e1010c"></path><path d="M317 0L0 256L323 279Z" fill="#fa0008" stroke="#fa0008"></path><path d="M0 0L0 256L317 0Z" fill="#a5060e" stroke="#a5060e"></path><path d="M629 244L960 0L635 0Z" fill="#fa0008" stroke="#fa0008"></path><path d="M960 282L960 0L629 244Z" fill="#ee000a" stroke="#ee000a"></path><path d="M617 540L960 282L629 244Z" fill="#b1050e" stroke="#b1050e"></path><path d="M0 256L0 540L323 279Z" fill="#a5060e" stroke="#a5060e"></path><path d="M617 540L960 540L960 282Z" fill="#ee000a" stroke="#ee000a"></path></g></svg>