<svg id="visual" viewBox="0 0 960 540" width="960" height="540" xmlns="http://www.w3.org/2000/svg" xmlns:xlink="http://www.w3.org/1999/xlink" version="1.1">
    <path d="M0 206L137 206L137 152L274 152L274 195L411 195L411 330L549 330L549 206L686 206L686 276L823 276L823 190L960 190L960 249L960 0L960 0L823 0L823 0L686 0L686 0L549 0L549 0L411 0L411 0L274 0L274 0L137 0L137 0L0 0Z" fill="#f7f7f7">
    </path>
    <path d="M0 428L137 428L137 222L274 222L274 368L411 368L411 374L549 374L549 255L686 255L686 352L823 352L823 260L960 260L960 260L960 247L960 188L823 188L823 274L686 274L686 204L549 204L549 328L411 328L411 193L274 193L274 150L137 150L137 204L0 204Z" fill="#fbfbfb">
    </path>
    <path d="M0 503L137 503L137 352L274 352L274 422L411 422L411 465L549 465L549 422L686 422L686 406L823 406L823 384L960 384L960 352L960 258L960 258L823 258L823 350L686 350L686 253L549 253L549 372L411 372L411 366L274 366L274 220L137 220L137 426L0 426Z" fill="#fdfdfd">
    </path>
    <path d="M0 541L137 541L137 541L274 541L274 541L411 541L411 541L549 541L549 541L686 541L686 541L823 541L823 541L960 541L960 541L960 350L960 382L823 382L823 404L686 404L686 420L549 420L549 463L411 463L411 420L274 420L274 350L137 350L137 501L0 501Z" fill="#ffffff">
    </path>
</svg>