<svg id="visual" viewBox="0 0 960 540" width="960" height="540" xmlns="http://www.w3.org/2000/svg" xmlns:xlink="http://www.w3.org/1999/xlink" version="1.1"><path d="M0 77L192 77L192 222L384 222L384 50L576 50L576 368L768 368L768 271L960 271L960 249L960 0L960 0L768 0L768 0L576 0L576 0L384 0L384 0L192 0L192 0L0 0Z" fill="#fa0008"></path><path d="M0 325L192 325L192 222L384 222L384 212L576 212L576 379L768 379L768 422L960 422L960 282L960 247L960 269L768 269L768 366L576 366L576 48L384 48L384 220L192 220L192 75L0 75Z" fill="#c9030e"></path><path d="M0 541L192 541L192 541L384 541L384 541L576 541L576 541L768 541L768 541L960 541L960 541L960 280L960 420L768 420L768 377L576 377L576 210L384 210L384 220L192 220L192 323L0 323Z" fill="#99070e"></path></svg>